# xmcd
#
# Track frame offsets: 
#        150
#        10497
#        28513
#        48146
#        60650
#        81017
#        98126
#        109829
#        123066
#        134206
#
# Disc length: 2430 seconds
#
# Revision: 0
# Processed by: cddbd v1.5.2PL0 Copyright (c) Steve Scherf et al.
# Submitted via: ExactAudioCopy v0.99pb5
#
DISCID=7d097c0a
DTITLE=Highway Child - Sanctuary Come
DYEAR=2009
DGENRE=Rock
TTITLE0=Red, White And Blue 
TTITLE1=In The End
TTITLE2=When The Sun Burned The Ground
TTITLE3=Sanctuary Come
TTITLE4=Once Is Once Too Much
TTITLE5=Turn Me On
TTITLE6=Dear Girl
TTITLE7=You You You
TTITLE8=Take You Down
TTITLE9=Born on the run
EXTD=
EXTT0=
EXTT1=
EXTT2=
EXTT3=
EXTT4=
EXTT5=
EXTT6=
EXTT7=
EXTT8=
EXTT9=
PLAYORDER=
